<svg width="140" height="29" viewBox="0 0 140 29" fill="none" xmlns="http://www.w3.org/2000/svg">
<path d="M0 22L2.4675e-06 8L7.77775 11.8889V18.15L14 21.3L20.2222 18.15V11.8889L28 8V22L14 29L0 22Z" fill="#192657"/>
<path fill-rule="evenodd" clip-rule="evenodd" d="M3.88889 9.94448L0 8.00001L14 1L28 8.00001L24.1111 9.94448V20.25L14 25.5001L3.88888 20.25L3.88889 9.94448ZM23.6898 10.1551L20.2222 11.8889V11.85L14 8.69999L7.77775 11.85V11.8889L4.31018 10.1551V20.0347L14 25.0659L23.6898 20.0347V10.1551Z" fill="url(#paint0_linear_14_2)"/>
<path d="M48.9858 10.5653C48.9176 9.87784 48.625 9.34375 48.108 8.96307C47.5909 8.58239 46.8892 8.39204 46.0028 8.39204C45.4006 8.39204 44.892 8.47727 44.4773 8.64773C44.0625 8.8125 43.7443 9.04261 43.5227 9.33807C43.3068 9.63352 43.1989 9.96875 43.1989 10.3438C43.1875 10.6562 43.2528 10.929 43.3949 11.1619C43.5426 11.3949 43.7443 11.5966 44 11.767C44.2557 11.9318 44.5511 12.0767 44.8864 12.2017C45.2216 12.321 45.5795 12.4233 45.9602 12.5085L47.5284 12.8835C48.2898 13.054 48.9886 13.2812 49.625 13.5653C50.2614 13.8494 50.8125 14.1989 51.2784 14.6136C51.7443 15.0284 52.1051 15.517 52.3608 16.0795C52.6222 16.642 52.7557 17.2869 52.7614 18.0142C52.7557 19.0824 52.483 20.0085 51.9432 20.7926C51.4091 21.571 50.6364 22.1761 49.625 22.608C48.6193 23.0341 47.4063 23.2472 45.9858 23.2472C44.5767 23.2472 43.3494 23.0312 42.304 22.5994C41.2642 22.1676 40.4517 21.5284 39.8665 20.6818C39.2869 19.8295 38.983 18.7756 38.9545 17.5199H42.5256C42.5653 18.1051 42.733 18.5937 43.0284 18.9858C43.3295 19.3722 43.7301 19.6648 44.2301 19.8636C44.7358 20.0568 45.3068 20.1534 45.9432 20.1534C46.5682 20.1534 47.1108 20.0625 47.571 19.8807C48.0369 19.6989 48.3977 19.446 48.6534 19.1222C48.9091 18.7983 49.0369 18.4261 49.0369 18.0057C49.0369 17.6136 48.9205 17.2841 48.6875 17.017C48.4602 16.75 48.125 16.5227 47.6818 16.3352C47.2443 16.1477 46.7074 15.9773 46.071 15.8239L44.1705 15.3466C42.6989 14.9886 41.5369 14.429 40.6847 13.6676C39.8324 12.9062 39.4091 11.8807 39.4148 10.5909C39.4091 9.53409 39.6903 8.6108 40.2585 7.82102C40.8324 7.03125 41.6193 6.41477 42.6193 5.97159C43.6193 5.52841 44.7557 5.30682 46.0284 5.30682C47.3239 5.30682 48.4545 5.52841 49.4205 5.97159C50.392 6.41477 51.1477 7.03125 51.6875 7.82102C52.2273 8.6108 52.5057 9.52557 52.5227 10.5653H48.9858ZM61.4185 9.90909V12.6364H53.535V9.90909H61.4185ZM55.3247 6.77273H58.9554V18.9773C58.9554 19.3125 59.0066 19.5739 59.1088 19.7614C59.2111 19.9432 59.3532 20.071 59.535 20.1449C59.7225 20.2187 59.9384 20.2557 60.1827 20.2557C60.3532 20.2557 60.5236 20.2415 60.6941 20.2131C60.8645 20.179 60.9952 20.1534 61.0861 20.1364L61.6571 22.8381C61.4753 22.8949 61.2196 22.9602 60.8901 23.0341C60.5605 23.1136 60.16 23.1619 59.6884 23.179C58.8134 23.2131 58.0463 23.0966 57.3872 22.8295C56.7338 22.5625 56.2253 22.1477 55.8617 21.5852C55.498 21.0227 55.3191 20.3125 55.3247 19.4545V6.77273ZM68.8377 23.2557C67.5138 23.2557 66.3689 22.9744 65.403 22.4119C64.4428 21.8437 63.7013 21.054 63.1786 20.0426C62.6559 19.0256 62.3945 17.8466 62.3945 16.5057C62.3945 15.1534 62.6559 13.9716 63.1786 12.9602C63.7013 11.9432 64.4428 11.1534 65.403 10.5909C66.3689 10.0227 67.5138 9.73864 68.8377 9.73864C70.1616 9.73864 71.3036 10.0227 72.2638 10.5909C73.2297 11.1534 73.9741 11.9432 74.4968 12.9602C75.0195 13.9716 75.2809 15.1534 75.2809 16.5057C75.2809 17.8466 75.0195 19.0256 74.4968 20.0426C73.9741 21.054 73.2297 21.8437 72.2638 22.4119C71.3036 22.9744 70.1616 23.2557 68.8377 23.2557ZM68.8547 20.4432C69.457 20.4432 69.9599 20.2727 70.3633 19.9318C70.7667 19.5852 71.0707 19.1136 71.2752 18.517C71.4854 17.9205 71.5905 17.2415 71.5905 16.4801C71.5905 15.7188 71.4854 15.0398 71.2752 14.4432C71.0707 13.8466 70.7667 13.375 70.3633 13.0284C69.9599 12.6818 69.457 12.5085 68.8547 12.5085C68.2468 12.5085 67.7354 12.6818 67.3207 13.0284C66.9116 13.375 66.6019 13.8466 66.3917 14.4432C66.1871 15.0398 66.0849 15.7188 66.0849 16.4801C66.0849 17.2415 66.1871 17.9205 66.3917 18.517C66.6019 19.1136 66.9116 19.5852 67.3207 19.9318C67.7354 20.2727 68.2468 20.4432 68.8547 20.4432ZM82.8364 23.2557C81.4955 23.2557 80.3421 22.9716 79.3762 22.4034C78.416 21.8295 77.6774 21.0341 77.1603 20.017C76.6489 19 76.3933 17.8295 76.3933 16.5057C76.3933 15.1648 76.6518 13.9886 77.1688 12.9773C77.6916 11.9602 78.433 11.1676 79.3933 10.5994C80.3535 10.0256 81.4955 9.73864 82.8194 9.73864C83.9614 9.73864 84.9614 9.94602 85.8194 10.3608C86.6774 10.7756 87.3563 11.358 87.8563 12.108C88.3563 12.858 88.6319 13.7386 88.683 14.75H85.2569C85.1603 14.0966 84.9046 13.571 84.4899 13.1733C84.0808 12.7699 83.5438 12.5682 82.8791 12.5682C82.3166 12.5682 81.8251 12.7216 81.4046 13.0284C80.9899 13.3295 80.666 13.7699 80.433 14.3494C80.2001 14.929 80.0836 15.6307 80.0836 16.4545C80.0836 17.2898 80.1972 18 80.4245 18.5852C80.6575 19.1705 80.9842 19.6165 81.4046 19.9233C81.8251 20.2301 82.3166 20.3835 82.8791 20.3835C83.2938 20.3835 83.666 20.2983 83.9955 20.1278C84.3308 19.9574 84.6063 19.7102 84.8222 19.3864C85.0438 19.0568 85.1887 18.6619 85.2569 18.2017H88.683C88.6262 19.2017 88.3535 20.0824 87.8649 20.8438C87.3819 21.5994 86.7143 22.1903 85.862 22.6165C85.0097 23.0426 84.0012 23.2557 82.8364 23.2557ZM93.5774 19.233L93.5859 14.8778H94.1143L98.3075 9.90909H102.475L96.8416 16.4886H95.9808L93.5774 19.233ZM90.2876 23V5.54545H93.9183V23H90.2876ZM98.4694 23L94.6172 17.2983L97.0376 14.733L102.722 23H98.4694ZM103.536 27.9091V9.90909H107.116V12.108H107.278C107.437 11.7557 107.667 11.3977 107.968 11.0341C108.275 10.6648 108.673 10.358 109.161 10.1136C109.656 9.86364 110.269 9.73864 111.002 9.73864C111.957 9.73864 112.838 9.98864 113.644 10.4886C114.451 10.983 115.096 11.7301 115.579 12.7301C116.062 13.7244 116.303 14.9716 116.303 16.4716C116.303 17.9318 116.068 19.1648 115.596 20.1705C115.13 21.1705 114.494 21.929 113.687 22.446C112.886 22.9574 111.988 23.2131 110.994 23.2131C110.289 23.2131 109.69 23.0966 109.195 22.8636C108.707 22.6307 108.306 22.3381 107.994 21.9858C107.681 21.6278 107.443 21.267 107.278 20.9034H107.167V27.9091H103.536ZM107.09 16.4545C107.09 17.233 107.198 17.9119 107.414 18.4915C107.63 19.071 107.943 19.5227 108.352 19.8466C108.761 20.1648 109.258 20.3239 109.843 20.3239C110.434 20.3239 110.934 20.1619 111.343 19.8381C111.752 19.5085 112.062 19.054 112.272 18.4744C112.488 17.8892 112.596 17.2159 112.596 16.4545C112.596 15.6989 112.491 15.0341 112.281 14.4602C112.07 13.8864 111.761 13.4375 111.352 13.1136C110.943 12.7898 110.44 12.6278 109.843 12.6278C109.252 12.6278 108.752 12.7841 108.343 13.0966C107.94 13.4091 107.63 13.8523 107.414 14.4261C107.198 15 107.09 15.6761 107.09 16.4545ZM118.004 23V9.90909H121.524V12.1932H121.66C121.899 11.3807 122.299 10.767 122.862 10.3523C123.424 9.93182 124.072 9.72159 124.805 9.72159C124.987 9.72159 125.183 9.73295 125.393 9.75568C125.603 9.77841 125.788 9.80966 125.947 9.84943V13.071C125.777 13.0199 125.541 12.9744 125.24 12.9347C124.939 12.8949 124.663 12.875 124.413 12.875C123.879 12.875 123.402 12.9915 122.981 13.2244C122.566 13.4517 122.237 13.7699 121.993 14.179C121.754 14.5881 121.635 15.0597 121.635 15.5938V23H118.004ZM132.41 23.2557C131.086 23.2557 129.941 22.9744 128.975 22.4119C128.015 21.8437 127.273 21.054 126.75 20.0426C126.228 19.0256 125.966 17.8466 125.966 16.5057C125.966 15.1534 126.228 13.9716 126.75 12.9602C127.273 11.9432 128.015 11.1534 128.975 10.5909C129.941 10.0227 131.086 9.73864 132.41 9.73864C133.733 9.73864 134.875 10.0227 135.836 10.5909C136.802 11.1534 137.546 11.9432 138.069 12.9602C138.591 13.9716 138.853 15.1534 138.853 16.5057C138.853 17.8466 138.591 19.0256 138.069 20.0426C137.546 21.054 136.802 21.8437 135.836 22.4119C134.875 22.9744 133.733 23.2557 132.41 23.2557ZM132.427 20.4432C133.029 20.4432 133.532 20.2727 133.935 19.9318C134.339 19.5852 134.643 19.1136 134.847 18.517C135.057 17.9205 135.162 17.2415 135.162 16.4801C135.162 15.7188 135.057 15.0398 134.847 14.4432C134.643 13.8466 134.339 13.375 133.935 13.0284C133.532 12.6818 133.029 12.5085 132.427 12.5085C131.819 12.5085 131.307 12.6818 130.893 13.0284C130.483 13.375 130.174 13.8466 129.964 14.4432C129.759 15.0398 129.657 15.7188 129.657 16.4801C129.657 17.2415 129.759 17.9205 129.964 18.517C130.174 19.1136 130.483 19.5852 130.893 19.9318C131.307 20.2727 131.819 20.4432 132.427 20.4432Z" fill="black"/>
<defs>
<linearGradient id="paint0_linear_14_2" x1="3.88888" y1="6.44444" x2="24.8889" y2="6.44445" gradientUnits="userSpaceOnUse">
<stop stop-color="#64C2DB"/>
<stop offset="0.307292" stop-color="#7476ED"/>
<stop offset="0.604167" stop-color="#C994DF"/>
<stop offset="1" stop-color="#E56F8C"/>
</linearGradient>
</defs>
</svg>
